<svg width="16" height="16" viewBox="0 0 16 16" fill="none" xmlns="http://www.w3.org/2000/svg">
<path d="M9.5613 13.1136C9.78485 12.5128 10.2933 12.0909 10.8846 12.0909C11.476 12.0909 11.9844 12.5128 12.2079 13.1136H14.9231C15.2404 13.1136 15.5 13.4205 15.5 13.7955C15.5 14.1705 15.2404 14.4773 14.9231 14.4773H12.2079C11.9844 15.0781 11.476 15.5 10.8846 15.5C10.2933 15.5 9.78485 15.0781 9.5613 14.4773H1.07692C0.759615 14.4773 0.5 14.1705 0.5 13.7955C0.5 13.4205 0.759615 13.1136 1.07692 13.1136H9.5613ZM3.79207 7.31818C4.01563 6.71733 4.52404 6.29545 5.11538 6.29545C5.70673 6.29545 6.21514 6.71733 6.4387 7.31818H14.9231C15.2404 7.31818 15.5 7.625 15.5 8C15.5 8.375 15.2404 8.68182 14.9231 8.68182H6.4387C6.21514 9.28267 5.70673 9.70455 5.11538 9.70455C4.52404 9.70455 4.01563 9.28267 3.79207 8.68182H1.07692C0.759615 8.68182 0.5 8.375 0.5 8C0.5 7.625 0.759615 7.31818 1.07692 7.31818H3.79207ZM9.5613 1.52273C9.78485 0.921875 10.2933 0.5 10.8846 0.5C11.476 0.5 11.9844 0.921875 12.2079 1.52273H14.9231C15.2404 1.52273 15.5 1.82955 15.5 2.20455C15.5 2.57955 15.2404 2.88636 14.9231 2.88636H12.2079C11.9844 3.48722 11.476 3.90909 10.8846 3.90909C10.2933 3.90909 9.78485 3.48722 9.5613 2.88636H1.07692C0.759615 2.88636 0.5 2.57955 0.5 2.20455C0.5 1.82955 0.759615 1.52273 1.07692 1.52273H9.5613Z" fill="white"/>
</svg>
